<mxfile host="app.diagrams.net" modified="2021-04-06T18:25:50.977Z" agent="5.0 (Windows NT 10.0; Win64; x64) AppleWebKit/537.36 (KHTML, like Gecko) Chrome/89.0.4389.114 Safari/537.36" etag="T6B98ePEZkDC2aio9qY9" version="14.5.7" type="github">
  <diagram id="6V_DN4dXiItIATpCQhRq" name="Page-1">
    <mxGraphModel dx="1038" dy="584" grid="0" gridSize="10" guides="1" tooltips="1" connect="1" arrows="1" fold="1" page="1" pageScale="1" pageWidth="827" pageHeight="1169" math="0" shadow="0">
      <root>
        <mxCell id="0" />
        <mxCell id="1" parent="0" />
        <mxCell id="YFmYNpRaOBFysFHnidDB-40" value="" style="aspect=fixed;pointerEvents=1;shadow=0;dashed=0;html=1;strokeColor=none;labelPosition=center;verticalLabelPosition=bottom;verticalAlign=top;align=center;shape=mxgraph.mscae.enterprise.internet;sketch=0;fillColor=#66B2FF;" vertex="1" parent="1">
          <mxGeometry x="622.56" y="531" width="98.39" height="61" as="geometry" />
        </mxCell>
        <mxCell id="YFmYNpRaOBFysFHnidDB-37" value="" style="rounded=0;whiteSpace=wrap;html=1;sketch=0;fillColor=#FFFFFF;" vertex="1" parent="1">
          <mxGeometry x="57" y="5" width="715" height="490" as="geometry" />
        </mxCell>
        <mxCell id="YFmYNpRaOBFysFHnidDB-36" value="" style="rounded=0;whiteSpace=wrap;html=1;sketch=0;fillColor=#FFFFFF;" vertex="1" parent="1">
          <mxGeometry x="228" y="9" width="336" height="228" as="geometry" />
        </mxCell>
        <mxCell id="YFmYNpRaOBFysFHnidDB-35" value="" style="rounded=0;whiteSpace=wrap;html=1;sketch=0;fillColor=#FFFFFF;" vertex="1" parent="1">
          <mxGeometry x="71" y="308" width="306" height="165" as="geometry" />
        </mxCell>
        <mxCell id="YFmYNpRaOBFysFHnidDB-15" style="edgeStyle=orthogonalEdgeStyle;rounded=0;orthogonalLoop=1;jettySize=auto;html=1;exitX=1;exitY=0.5;exitDx=0;exitDy=0;" edge="1" parent="1" source="YFmYNpRaOBFysFHnidDB-1" target="YFmYNpRaOBFysFHnidDB-14">
          <mxGeometry relative="1" as="geometry" />
        </mxCell>
        <mxCell id="YFmYNpRaOBFysFHnidDB-1" value="" style="shape=image;verticalLabelPosition=bottom;verticalAlign=top;imageAspect=0;image=data:image/png,iVBORw0KGgoAAAANSUhEUgAAAQsAAAC9CAMAAACTb6i8AAAB11BMVEX39/cAhkXPzs7T09NBQUEuLi4AhUL////tllT55JQAgz/6+vomkFbm5uYAgTvg4OA1NTVcpn1aWlqMvaEnJycAfzbZ2dnb29sAiUWyw7q8xsBFRUUKi00vJixCPkHHx8cha0M2T0IMfkQPdEAgIiZGRka5t7egva0wJCzf6uQReUOqwrUzlGASbj43LzQAfC5gYGCWlpZFTEmQgU42ZUs2Lzi82cjL4dWssq8tKCvDtpr03bhQUFDdzq3rml3w9/R5cmODZl0jGSajzLVInm48XUpxcXEndEruk0zF0sopOTEoPDH55ZvB3M14tZNiqoEjWjzJyaAiTjaYjnv46bCRj5JwtJB9en4Adh92qItZc2W2qIr47srBxZtvqGIkRzTd2Ytkn2pmYVf38dmkmYQOABNEmVVOelN+hlHSt5ymuYyFrHtrclpzfXdIjFRniFHY0cHisZC7yX6PtWynwHXs4tRrZVr+4bmOdz19rWeciVhPkGhOSFB7l4dwZm1ucVtGgF9ZZl8CAAtUiE6Zf2+XuIeynHmYs5RtlHu8wqqPdmifr6ZRd2IoAB6JppZqjGhxZEZnTyxbYThNbD6Umo9zhE2TpH9kh3Loom89hV7Ur5aDlIvRv7IROKRlAAAgAElEQVR4nO19jUPbRrYvMnjcDrKCLGREEJiYYFugYAjBhgB1QCqpk7VE0mIgaZtm26RN2qZp2m5oQ7PdbXebbvO4977b3rvt5o99Z2b0bRsbNmT77uUEIssepJmfzvecGXd1HdMxHdMxHdMxHdMxHdMxHdO/nHoTvf9T6aBI9JZsXVVV/jdLLfqmRjvdMAhT0hIHgqLMF5XPHrzz4PPbGKPfHGHWt7cb+ibwd69c+RD5b+MP37ry1j0h9MeCLB2ANXpLsvLgZUbv3MYckDIxNpZVOG5sbIycBg9KFg7wERwmnIbso2ykIRdoqLgNlVYNuUhD94pAn7t9extzQcI3Fx8uLj5cVpHzBroC54sP/xJuxslmx2D0arLysk/khsqZwvBwPKusw+Eyp1wtDBduKNzl4eHCupKNw2FUmRgGGlPODHsNLzkNOYU15C6xhgvQ5AxtuJBVRlnDddqQuwGHq25DcmFoOEYaTtCGcTqUd/y+fRYcJeJh4F98sfjwivMuvvsQzuGNmygCRt0Rk+SJNlgkdBy43csv34YnVIifPr1w+Qw9XB0djp/uH16/utB/ur9w5jI5DI/F4aN4fGKYtLjEGt5wGq4Pk4ajN1jDS/H+0/HhiQXacMxpWGhoWGANF+iFF+Ks4eUwFPCg2CiRDARD/yIJtPjwnjP2xUVy/oUHjkfFMuWM3oF0G7YoFx0m/J3DisCfw/3Xr8eB+s6/ByPu//3518nhwvkL/dDV18//nhzeO98DLU4HG8bHWcM/sIYXWMPXz48v0PZOw36/4e/PX2AX/gNruNTvNew/f73/Eoc+c/rmdE6hUKhlIPTWwyQb+02ZEv+QYpFcXJYjVBSZmUyf2F9aeiWB3uVNeP0uA5+bGD59nnaoZ/k87fIyGenpC8tkAKffW6Y9v748RLA4vxxouLR8nY6NNXx9+QJrSIfIGvbRhvEWDX/vN+yHhpcctnjD69tniEoHGRL31mKa0v3BSUqD99l5unuygQYoxZJtRMR+272dc8MHGFi/hzz0uHsY6qPjcA/Bjzpo2Lp9374XXrjE3fb7VqFMy9h/B4i7udh9QGoDRVdCpGxYYWe/o/cDLH4TdBl9Sfr2LuvbG+Q1Uw2zs7NfqfjKQbFoAwVgQdVFV+B+vxUsFi6j4HN6k7zmfCyQmn7OjOHwxbu/Qb5Y2J8v2mORjjZoi0VTfUEsZjzuHYjuB5sXPERaPIeG/dGGjr74nd83R198tT8W7vsnQgS6s40dSYiYaug3Kg4XghFvbkeI1u9vZ0fe69SONGn4XrAhsyPM9SF9Y3bkS+ZlJYD2wWIjl+7OwRFMRwiNzEA7LATXhjv+BSb+BcECrMn566cXFgCL18nhAnR5YQF6/vv+YeZfwIE0XAC3AWzkAsWCNiTtoeEfWMOlfqfhMG24sBAfZw3/cN5peIE2XKYNry+ThtADYlPfDvXNURdqCYhricXGrce59GrOO8/E0gMdYoG5Jn4nDJC4k3Agfid0DvxOOBC/k5yNMYkeG2YN6eGG25AewJ30GxK/07+i23CdHAqhhgtjC+zCtCH4nfhBpG/Mq5ZloSUWsdVMbm6mkPHeyMHLdKdYBMG4DdqJRQNumEHDBohHLhUC8QgJGyB6IA0XvHjkBgszLtMww23oxCMFGmasswuTwOVyqOE6DVwKTsMxpwdk3AEwwsFZayy607nCqo9FJuPojg6wQBi7seADld1n7MwZ0pEz3gH+z3oHEq5OwEGhDUm42qLhGWjBGiqsIb2i4jZkB8VpH244xhpynhsOMXQ4yohg4Z9sptLpmYCMEL4Y6FBfiKKIlS8fPHjw2e1oVBMhJXRo8oGidNaw/dvBd95mfSP5iJZY5OZ9ODYzAEbM54vugU51Z7HcpQkgmZgkS/xbAbtEYt/2hLk2YB6SWNfe/+ije4EuhbGYW03HNnLUpdi8tZmJrca6u8NWpCMstATBAi4ujpnevbA1M28eEAyh9Ifq0YABlL2wAvS+36UwFiOFdO7W44H5je7Mamx+br7Q7fsXAw619y+KpURZpkOp9k0K3p30R4/4A3YXib+IIfgascSC7LyJBFlo+Hifa19YubO4+N3KRe+aDItYjApDmmCx+vjE7q1MrpAemF+da6ZW2/qdHhacoMiyd3M1e1AooHsowBaCLKtKUQ6JuGwaZcZtMi/VpAOAkV25TjJ4Kx+FsYjlMjkAI5aZc7BYzcQeP04PbATsyEGwcGQE4fWFrzXVHYnxeOagMhIkLNfL4B1WSroPL+LIW8SIc7IEr0py67+P0gRhi8WHf/tjBIsTXZlYd3qp4GGRS8fAhKRzsUNhUU1qmAiFvV44I/qDOYTu9EnQtURZqltGJVESXKlQKwmtTsGWS4mKpB/oiivfARbLK0+bYzE3V5jfKOzOjwAWTkbnMFgIpmmSSz8qXxs+U/SSyuY3j/hDg4HNhKbLAmgH2XIlkABgyBQYoZ7QVLnZ1YXsxESW6hQBhSQIPV357s71v61k/XcCWKTmAIwC/M6BjMwTyh0KC+yYbSSvF3wZwdbHPx1aRhBXSVT4IoCBOdkEBOibfEIrOqhoCfg0YnJ4XthLGn8anjprpE2E8x98HwbjIzAjFyYidsTBYnpubmSOUXdubnVkdzd1OCyA2NXHRrMBGVEOLyOykVDLlVKtLloAhpXQKTNYCVdZ4kTFKJXEEBj4++9lgkU8ntKSjxCWPtkOg4WyFye4qH8Ry8RyBIvV+dzq3C7hju50bBPs5yFlxN62GWOYE+bzcQ+EhFHUQUtqhlEUkFyhjCFICUtwRkGC7kTEjHzwMxYt+Wpf3w1FBOmUuQYrE342DhYZwhePV+czq4XuzcLuJjGwjVmcju1IF/O1hO6FyYOY/JYE2kIXzFK5YtRKtRJwSYVggW1HWIBveiu8rqvhP5Isea9LW4vH/1ROilioFqqemVGQ0MijAV+LYTHXvbG6MUChmNkgn/luFlOnbfPg1KayuyqKcAAr15pAGgCPsllJGBqWjKKVoHoCVRI8wxq0qFWMsiCIqm3or/b1nZKqjzDSJ3TX/oxdelqiThySA0omjEWu+9bIwMzqTLo7s3ZiZnU1lY7mtTrywWuOoUfrl55U/YeFmqkLR82y/50xsA84/z2GRaVklBOWrGouFvB2xSySJ0wyU5YcVZ4c3q7agMUNMa8jwMJR3ap5pnDOJsAgU9Pq3h8FsVgDU5rJpGf+DFh0zzyO7T52XS1iXQcOgkWNYMGb64WLdX/UusimsDFPgy5yAr3RVZVTeZ68w2P4CKkigQHpiIdPONp/LAIDmKWiLJcrvFouGhVmP0ClJsoGGZVgghtm2BEwhL2u8trw1HQSdKdcWjjJoiQ9uTe8TrkI3bx+/WbYv/BGzI4MgdzI7ob/GVWuB4jNZOJfaEH/Ap6ibdo6+B62LQl1ta7DCRIkyeSxbhiqpdqSLto8ti0b8QjbZt0CPCTikyAOnroJzAZ+RMWQtrSaqydszfE7Bb7U6Hci3RTOjI6e4beJ7lTcT4UzhWs1KiP3Zme/9Vu3zv3mbuXCWHSavwC/s0p9cAH8C19GBMngLcuq1y3bEku2JOpWHQuGJeoEC7NuW3VDEgELwxbBIqiGbuqCKtFHLdcqsg7mFAwDeBJmwrOeWOYt3vFmOFGMSqHAxIZ4vIL0at79q4n1i1RGuHs7O51gAeMPfESx6DT3q+uOljqzPuHLCLZ5U6rbdeAEQ5V02+Qt8IDqsqkjQIU3dMmqW8AkpiFyOuk7NoF1DJU9YDCqBF8sCOVKpRx4/r5n3+jjCxLoi6mpGwp9fU7yEFQEakeQeP/+h830RYQtwj44YNF57tdLFylKMBdDVAVGAskBUsWBCU5URZL3SWaQ5n7gSDUm5qhycUZlgQCQAhkMfkbFrxZhxLUgIZ8sr8XBvyBNfBnB0p9+ok8LmUEHrXUenFKMgBKeFego9+uZh1A/MaZD9c99mFqNxiO5ToIvlRdLEHm4f4iI+jGBlwAmocGK0M/lq1OABTCqXJo66Tg7yLzopFJa2dQwpW5tAsUOY1Ph6pi/Cc9OvQnkDxOLdXBDdYIP4wbvqao8BlFQOawiYmCagkGVIwnaJd9Nkiv0LdUsQbhSMht9GYSUq1Pxaa3rpIxMP8nWnJVa64uZbiYjDRFr+3gEbNXir8s8vvnwzp1FH4o6D89QlCzeVE1VVCVOB1/RBHMqWJJJVIclGrwhWy0iOATDsUU9mLyCkEwra6aUKFuiVQ774BRlLAAWfafq2qTcAoAgtZxnb4VRe78Tc8KV71a+uyvcvLOycsf3tUTbRLZo2LYhSiJ0HsyGxUu2hQALvY6xaNZVsY5q9ZYxDMZhpqHh6ZaUsLd4kd+yEwH/Auk37+nCtsSTeESQO3B/8d0jqL8ANn8LsPgLxWLZy8Xjum5x8GDrlgGmwtABkXod1XlJwDB6Yl5F4Is6Fn1tJiOB+g7kP9wksgEsdMyD+03EpyToARBx/fpfLTnf1bW5MHXKnw9AqKVuQosHxqINFExG+CvLb4GkPFxe9mUE6bZYV50qSVMnioFwsWgy5UF+MO2r7wiWTAnsoCB9/8knn3xvNLIL4YstqbJl9OpFs8yHZ8GImhYlfGZ9fdTDgri5rZIoqo9FVC2ko+S8P9ABFsRYkI6pajB0BGXq2y/U+KqR4mOvnlNgxOd3ZneeVRoZg+gLrcuQe+syeF1NLgTMpHjzTeT8H0/0Gec0Ai3Ci26pGqgxIP7DRVrX98XiX9gbAVI1OtZOdOdzIlQFvhAIFrOzO/ebYwFk4ARJk3RyW+Xa03trDAvVYvlpQaAiiFSL1TR+8fCuU+irMnAWF/mG0uGiRoxp2zo+FwvFITooLps9TE5LIH4XJ5R++OCDD36oNZURW6+Vt7RSUZAbHHBGiPl17CDYIugnyovIBDAEs24Yhq3KSJUQt0zLfJfdv8QfkvPFhx82uzEZau+JNhrDwUI59yoj0p33V1ZWPso2XLFToma0WSaE6E7ZBv8CotUyvGzCGkjXRZM34Rd+dFNU4SVHdBTBQbYrFsQEolHmJQBIvQtDv+srV3zzyuLi8s0mV2VYdHV1JiPKqyOUzlIovrv+3soFt3cRDdHW7Dt2pAUWSNbKRb2m1fRirYl4YkuqGpJRlaRayZJKJcuoGvZkTSFgiPWaRMkoSY7brwYnp0CCVLWp6+di0YZ8LHoInSUzVN8Bp90hU5dkno/nVdl1mDAYfl3FcpOMW+DGTEbKLbBAfEUzt7a2TK1X9y+D2K+Q/dM0pVT491UqfGKJE8D3KFqafjAld1gs0EU6Q7W48pEiq1aJuM2VmkRyKaholyq95NTii63RkMv3d2Znz1caW8iVXgjYsVpOVLRKouabKbDD52f/agjImB/p64/3NNBQlXh0smTLYCO4WslL/0Vu0sJZPTQW9zwsIK4qS7ZoSmWtYgqYToWBN2qVa4ly63kkisXO+a4mE8sGe/4yb4ELGzSqFIuSwNl7I/39TcAYl4jKwKJhSppWk5zAF6v37gWFBGH9Ht9MSA4tI9zK30BDf7dyUU+IvAwmDAsyLyV4XDFMMvsDp6pZaW2KsbX9ybefbEtNPvJmEwUhKma8ypMU4dd9gEV/z/h0yueJJYIFy3fadbMoYclZLnB38eHDRd9s4JvLcH5FbcKQh8UChGTlb2BIsJiwBY6ngSgqGjVJo0lHjOAtvmK1nj3ArXzw1oT0R788EjEyfiR80dezND3dk1pKjZMuTU8v9YxP2nTK1ypaBicb9Nr4StiGonuLiyEj+xyw4FD2owt//AVsFp3bES2SyEdcpZd4SAJXr6t0AuRgDkibqFOQco83ajLBoqeP9GNpaTy1NE6xSK0BFlWLdlOSJUmXaYALIcMidTMXHWcZL1PHc/Hh3QaWPYB/AXZCcLFg5YK064JGbopVyUACV9QS8KZsGTp5T3Q1ozLaqOhC5ARa/mxHU8Li3tOvJQGBvmB/lgIpSQFfDIGMACLjeRqWCIbEyxJP+QK/5a6luemk6x2n/OGy0MLvHOggl1MFk34WOgCyOlStVt28giBVqK6TzbIty5UEL+tli2o8ueymsJXRkX2hGGFYoJNztX3jcKKX4BlYASyWUmup6dTSkq874b4qyaxKdBrurcUTLP74kAUdJotHIECJhiM633k8Uq3m10YcLAZ9LDjcyyb9MCobEGZrkqazyUYxwXt8MdIT0HMt+QLtH39ggyoBKiOUltamh3pATsC9oFhQGcES6Y8gauQR+fmLdDR/1RCnuh91UnPAMQkhWCBFCUyR9FpsRq1YSfSCZ8E8AsGsuBOjFIvNzdDol4B6xqn697BoqOSKEDIxefBI8rCYJiyxBHLC+ILoTpAOScaCXi6VSa6AP5L8RdcM1VcEi3FgMsMzAUWjYskYYQgiyHqthFEE4IpiuVx0WzTKyBDxFIFXpsdTASyqF0r7GRZkCzY1mp6MrE0vLa0BIo6MGCYWiK4ogwdeLlsSSaXcPOj6kU7yWta1EReLoboVTGDKVqJkc6aRcKgmqnrJ54qm+oKawnGQ9fGAjPgZ/uZYgIEgPOfpC5AR4IhxUJ+uvpAlHcy5CU64LgqctP9c0eHAiGJhWdsBNwptAQzE79bqPE+L0QggAQe8CRaUL5ZgKEEsxIv7F/kUFcJq4IP3Ody1tgZ8kSLGhOkLu05iEGqZwdVEqoXbYxEqOEh3hkVyo4WMcEK5UheKMpkFQ0goSuUtAZhE8+NkisVQSEZgANNE3oN8gQb79pURXP0/ZB4zYEeWhsCQAKIppjsNMeKo4n34wi3hO8T8CHIdLcIXoRvKpQoSkFBOOPqhqEGQVrQT/qQgtSPTayE0YAzwS9xFny8EZV8/FOlZ6mSLAX0xTbnCxaKRrVpikbu12Z3eZVPuwA8D6c5rDjBX+9jHohSwqUhPmBB/gGjYRZpmUioJMCyy4WfzGRZMHIIyMk0eaVBGRvfPJbJ8N5ICfAESAhdh5mg8b5OawACh1lgUZjZ2M4dbJ4C5cgCLgK8FXo0mCzxNUpZMXtUlEsAbMub9agGCBbBAkC+WiL9IoAjKyOSlTsqffP9inPAFs6dMX1iyVCv5VNNR6/Uj6fTGSOFw60e44jkPi/FisegJgFwqbYkV8LFsgkJvQhN53UiUwdtwixOZvgjJCDjP42s9qVQIC1JevS8KLBkc8MHXpseXAlgYZrGcCJLZUnfGdmfSA49vHRIL4+Mejy/yk5OWy83FsgbuplQkNavQkzK4GkjWeytSpVIM+J0w7AAWQyAwVF+sBfWFeCZahBNmCOvbb7fVoO5cm06lwljU9sUiFlgvspbuHtgIrbHqtC4Hc9qGh8V4VTvhygjoBbCmBmUBrCcSpuN1gpVNBOORtbW1gL4YmnbsSEhGBveXEVTZ2fmCRwG/cy3g2Mf7xgdt2SgHKSoju3Npp0Ipnbu1kY7tupozUHbQiR0JyMiQXCx6oVlC1BMVJ9iWtV7scktly3LBoDISUp0QVPUQvzMV0p3t7Ijx88+TKvL1RZDi8Igm6210J6mNv7WZjmXSsdWZzceZ1UPWHAT4YmggmWR8gdREXRZ6XQbwsRCkslw0HC6hfLEU5IvxcWZTSUziYxHMXzSbJAXvgfgX+tdNsOjr72N5rQh+DWtp2PqRzNxAem2XrB8J+VmEOvC1jIAdkYw8mziHiF3mhF7X8UIVN32D62UZIaduFbAYXwoHqtNrwXMHC173EqSIf3SvWTKDoAX6YqRvhP06RF+OS42hnbN+JJchFTgDI976kcwc6M7d1UOtmcCcGfDBTVNkHZVrJWBEt1RXsMGuFh2+0GQOTImLBdFzQZuacnIOQSywlvH8M1x//d+tqCIFrczrZNLhyd783h78/vjjj1/vsV841VvV/cZiA6QGeuNxYP1IbjPdnd481FoaiFODPniX44OTfA04WxpN3mBEXAubDAfJWoWkuQJYhHwtcC+Wphv4ggvOWqvZbFYIF8bXRfnkgEjm8S2DLDuxxLwkWlLelAzLlJrlkUPrBHYLc4XY/GoqDViwYs/D1cZjTn/V1xckC8SKdw2tKFiEG2RBBoerXK4kJLJPDZhZHQusPpZiAfYzzBepBr7gTD82E/Lax8Nna/mgMlWufaP8afpesyG3pOj6EUZkXRGhw2IR8i/yjr4g+V3wb8DDMqRawsAAg91bIYiAnd1ya/4bZSTlxlNBLNDJKc9VxaK9PnXZ2saBujj89RPh48e/tK48aYsFWUkzR9dM5G4VVldXdw+JRdC/SHv+hVzTpASrNgN/i6ZedfK6V7LLhldOT/hiKcQXPSFN6uX4/FEKwvrU2XJeQKbnfyFdl0sasI4ZXjzQHouBJF1Ls7oxA2JC19J0z+zmcrlm6qKTHJ8c9C+8yVOyykOSeZLH8dYDwYnGy7JJxMTDIswXJGZvtCPBMZgm8IW9LaB/ez1Y4oJBP6ozLdLlqHEBp2tHct76kRxo0BG2fOSQ60cwVwrKSKnkKnnwu6GPRdsv3MZiQqNxQ8Wpdm8Sm7H8xT5YEH1RGNcmAYs/RgeuPtbpMjOBTrG5xoNMyGgN+Y/A+lR//QiYEIJFJufUNB4Yi3IAi2o17c8JJGgi3gpiQflB8NJ8NGYP+eCO7nTtaiMWHM9lxyZ4cKLNxhJAiecMFfEGkkwkGIxJhB8f4V8eX4viFlk/Ers1l6brR2LzA7mRuY1m60fa1+W0kBGyyoM6l2BEXefToNYD3A43G9GY4xufnu6ZJvFEKDYLPXzr3rf1SE2xS8AKj1Uum1JTvyBld4Ld49KoMjF9LXqhIBbTt3LpjZn0zC2ylmZzJje3SxaSREqgO/LBgzm+E4EcX9FbKGYU2aSRs+DBSqiBODVClC+GxoeWhlroC/6LnR2tZXii5njE57j5R0jIOXxhiMKj2KD3iIjHI4dzfLmZGHErMjQ6jc1spshaK4dibpjaERZSwO+UJMnLQMGYeTpjCBqDLxaxlKBzRJjrDc2PRPgCFOd0z/jSUij3GyTe+OSTJhWPLpHFsjrSIYJ3V6SBX6aaXsmFWvlqdvZ+JPebDh02CH94WBxgzQTm7AAWom37qUW53GuCp2WT2L1CzSsvYJmv+E+1mYwsDU2DXV0aaiUjJArbJ2plJTpOoY7/rhfOqImvZne+sIT98uAzgdcHWUvTwgen9xVKiZplaWBJS4ZhlHsTZVE0EuVIHjxEQxCokjg1nNd6foRU7asPPrhf33dOIB3BovNcDh/Ig6s8HyzmkEWS7qyYZCpellW6XL8eqKjpcG75uZKzyKMlFmTJqp/mAsOS7nhflIh/Ecjx0RsT/6q2xdaXkDxbKbTOHLDYn44AC4da58FXyeL2w+Zygv6FNhBZT0xcT0OmpUqlREmP1C5n29FzBoDdHu8zJ5DOpTJsuogh4M+edbDvWigP7uf4Avc3eyuSKEqVhL1P/d6LIKRXfpj94IPZHyo6aj233FKPdOB3Sh+HbGpjxhojSSMLStXnssT7nyCkJ87PkmrzhCkcfP/O9EFzOaH5VI/IlhStS1wjW1UcHWIOFrMEiytHUX8RyoMH54o67qEYhA/ppbaCNHGR0YHvBFjsML7gjmYtTYvYrHMavRS0FhdT7dor55iR2T3ojTi1fvMekFhX1UW23+/9+3lG7n6/96v5BmL+RSfrzUoBfTHpx+wdExIHg3xhnmzHF4rDiOMHN7isrBdjUsLIyvaugOsDJLMaR7ovtBChLY3uA93dgR3RA74Wr+uty5tbD26fs2bND4+FR6S+84tkYGt0UvtKoFhuVffbUU1jV863qSEf/KjoeWDB4Q8XHwZroJF6Bc4De+r75NT9JtvslU6wEO1vvDq+UGx2VPRcsOAw/5e7fwms4AOP4+7dm80KjA9QA40xCysIX0TXlB4JPR8sOBTtLGrR+UPUg/fF42edvxZ8J7rp5RFbICU03SSrLbXDQsB0ghVzz2XLmgNjcc5fJwBBID+/uvuY0m5hpokuBR/iw0/IKtTSofYj2wcLmvPNb+OqLuTrarXzKYL96LBYIBGLmM+xqoFUanrcTdMTjnR34sJm4jrzhQ+4XoCRci4eJ67uuP8WBF2I7M5iiIhTLq+j1Qnl8mh29fmEdofFQjDgH59zoAAwcs5GJvo2Ibb5wj+FBUS85xbY4qFTnCPhiK9+MFuCrvz7RZLgtAhfTP7L+QJkVEZ8JuWRgwXeJtOU3bryz2LB1+v1pw4WI6fsOr08SwhDV957hDx9gfZLBb4ILLDI2VwjFhOjT2cIjY4StgV98V+H1BfIBE94w11UNrLW64TFejZLNm7U2+4aGq7P6Ygcv/PgWEiq1ASL0cLCaUILBbK5M7EjZIIjbEfIuipSG0sIswN5wlGXnud5V0YADHfsiC3OEuiWARzbeaTpcqTJwYNT57EZF5YRpYmMoPcvuHSxFSfguoSQbuh0Pa3IDpLF+XMMbMx6tVT72FtsOFL2tz8RRYS2TUH89t9UVed1nsfit431OLFDU6dYOOuWxzlBupoXGrBQRqf6GE2NtWJeudZbLJoJ2zBKhtZrJ2o18iMmwj49YFEtB7DQ/OkYoypjzSqW/uM93UpKA5PV4uR/DDZMHWaOGgs/o4ClV/fAjqRcQzI9T9Wjj8WZVs6iXEqUy1rCLltbW0bCTuhmwgRoIljQvQoCMqIguj4TCwg9+npsbG8CCYqC1Ek9b2/jJuV/LwALn7AiID634PoXC51jUevVdQsYoWxZZcDAFBOi2IAF6M5k0ueLvi5xsMojIV8VlcvDU1PDVxX76Z66XphaGL6ErXPbDXxxaCgOgwXxqJ5cvXqN0tWrT6iNj2KBsBL9Q0EyBEGvmbRgW9JrulnT9ZJZCs+mIx60yDWfLyS+nAQsjKSo3BheWBi+iq1re/x6YWFh4ZIgnco3JFMyh2aMg2NhQaRq23V3Qwxn+VkEC6T/9H/dfdEQ52xlQvZ5ABCDTGAAAAx3SURBVANDzZhAHUlETqM7mshy0ZeR3aJslWRFMbWiIEmTZlVHoLzxL3tPnnz9BLElNmGaz70wLJSSYdQlw4h4fFEs+Cf/WSer9sB4mtnRlnLTSMg8cUIL6M6kePbsZaDUujCZr0pVWzaWcqp0YrJanSxOxk828MXRYwGuAN0+TxlNnT176uzZ1Ciiu7EIjnsQlRHyJYYyrwuGLVfzhcvN9vVogYWeN4xrPhYlM86ue1Uh7gioUPPiI3cpsngmshE9egFYYMswMK4bhrLOBj21rgJ/YGQ50yVRLEYLUyPVZBoCKCRkp87WtjsGQ9V1PWBHdHVqaioenwIsnH2w2a5jbFuccGEf2Tj0BWDx/bP7SID/1PU+F4tnz74XuPv3f6BmYHQuTnYg6J+aAyywgAGbHqtUFSa3BXFi6lQoGYbYdoaYbXQTMQTEjvg+eE9fr72+vv7x0/X1UaQOXnBsDrZ/+rExvYat9AkRHb2M/LwzyyH4T/Gw4HZ2PkHq7M7P9POxdRaPnFvPkn0obMDiEpYFDiOQkfgNomGVV3d3abBiSqKlw6+9vV3nJx9F5hhUURRf9fnC5hWF1wyB6N/tb5zgBJmPnjSL+l4IX3A/zwIWn8wGsFBmZwkWsz87D2Wb1syROFXYSyZn+vsuOR2UZWZHlHO7SwyLjc1t8vtoc/ORuvF4L+KDG5IRsKmGibDYVXUWi3uJXBqJ0Jgm+Lckwj9yLNB/Xb/OYfhP9fQFd/36f2H1q69+dlI55t729vYeDU7gwRO+IDKNkCBtX75Kwbh47hxtOrG7O0p+L+7uXuR2d8+FjEyDr2VjUKd7zaJzApsU5CrVNNWjx0IoaZogGJqmri+5+qKiSQKqeCtIWODJMi9MX0jVbtAXsrQ9fIPt2OZszyXOfyyZ8Fv/6SeLz1yL+OC4WAz5FzS4FcayOMA+4O5NTECwR8qi/Jzni9IXdG9E+E9ZH18gVFhXaHWj0BByMxqdmxrJa2lSb1gEO6Ll/U0nMG+Sf7pJ9oLjTDW8GX2jf0E+nihs5nLjU1N9U4QW4CR1SUH3/goU/FtVfQEy4lN2b2/vydd7e20yjeTLp0jiCfwLY7sAujO4CR5Pf3TT/QkVoemTk6WAviiZZFP4iamNXI5wJPluvL44nEyfUsi+z6DG/D/lX4iM+KSAjNqSFPU7o8Rv/yfV+eAdSeLVdQWCq4GT3enB7m7nJ10dHKhWB6onB6ps2R1yhAAB9wX8CxlhQ0cuFvH9sMBW94B59DKCsD8hIuy7QbH7dCEeYUOUi7JCzMxkVYKf6qBUnXR/8nn6QxtiXRRVxGQkGZIRYW0CdcQXzLocNRZInyETItPTjx/vrs43ZQl382dnhyQ3TiUsn+fJxvF1SbUklSSyLJXuAAsuhimZpqSzPZDAfBDLCUYjnw/ZVCFn+lhQ8rDY2dmZjfSByx1xnIr03LibsOiZb5idxYKMTXi+Vbt6UrZCvhME28mkVJRlDwtEsVAlm/ewIIErMaV00QkYRjMgIyZP6nsnpjbnc+OAAtlqrC8OJ6lTCha/APLvhnTb5o88fwFYBCZEVDUz5y1RmOi7FH8iVXUzaUhJUasK50JlirLRHeuuku93PlklP1X2c3KyOgg/g+Rnkn459ODAwAm6V38oD058cEx1Zx8VDuLapsiLeB9gYWqaVg7aVNAX+AVgseQlOE+qiM86uX4E3Nu3MKglzWLV1E9s5SV5O7RSTDZimWbLHxspPTDQnC+wRHQnxaIHmKcLXFqGBXVFglOqmOwPfvLoZSSQ7FU5nmNYqDqfBZufVU11dAS6eqmnLxtaUnhwLEDB5I2QTcWm6mAR3ySVNbF+qkFbVckeve4MYaGWOCojSEwm9xb6piYQchPhUxG/4+BYNNoRjy/652nZEdGefQQLZ0PU8PqqF4wFEtjsHTKr5W3AIosFZXR4amFhqr+QDZtbH4tYG0jSTF80+OAYMb4A6u+mWKzR7M4pBWKCDwhVXC+efufaC8aCE5HoBB4CkZEJO89n50f/+x9nfvoG8yE3UnCxePbaSy+99AqlvxP6lNCvQHeePXt2n/EFqYoDvkiG+YLMwDEseigUJAamWMjlrh0ya5souVmNa18fva9FsHBtagr8Cwl7ARX0cjiWTOp2l1TSzGRJfvIPFs25DU4GsPDotQDByd8pFoN0rySa4wvF7JyDRXyNYRFzsaiFsUDmN0/0o+cL058QGfZlRP3hJsqeunEqa0rqdjeEpWL3pPyUroJT83m6ZBXJDhZ3KF+8FCX6zmufMixYkqK4tRWQkS2Bc7Fw1EUy2ePyRW8YC/3ePf7o4xH+yfr6U0rr6098Cdi5x74sF8In58uLMBLJfAfik0mSLJbMEBYtyMOCXMBsNofIsIg5WFCFQXwt61tCkhPpCtJfr7+AmB1jMhOCkT8hQvmi2qSmj+SeoFWZpuVSv7hY/Oph8YpPUSzM/36i69VaLSAjZV9GhhwomMIg/gXlWVDcqsr2NiRpkqPGQvmMfBX3O59Hv3C5aTU8gOGma5X5R02waMkXRfvaP0ykckrA11JdreSpC0dheP4F7dvLD9y+HS0W+G3va78/D5RLtvhGHbz9A/bS+Lx6ECzIQi0hkgfvsl0Z8dQF9TBcLG57fXvwArDAXwa+Dv4BooUvAll2TklHtBAmAMa3s1wf9QDiVxVfd37aRG16qPzq8EX94xmRfDvWU58vLN2VEU9dMIXBsHg70Ld3jh6L2y8H6TNcovuN4fRgd/Vkd7ckG3AeWE2OrUl8eYlM+y2tK5ZeZFhkPn3NHforYSzgv9cYFlVZ/+URH51b9rDo86CgCoNioYb69gAfMRYCFceX33jzDXZDRSPraYrypDWZlybz9lYVzk8EGAPiSl0rgvpMqujjX+rkiyq7YwSLCD/4svLar3RPmxNVYkiIjPh2ZMmTEV9dMIVBsMAPnL69+Tv64vYRY8HY4l1yQtH4bCANjzCfH8wPTpKffJWsWwuFBKRCAGMrKckzj7paYvFSFAsWp4IK8nXnWcelnxju65/xsSAexmXAQon0jTDGUdYcfOndrqtCpTLfLJoQXHVKsZCqgMU2SJJpJhkWsU9fiyLgY/LanVggTg34F0v5apV+GYy+0X86FsBirT9F3FuqLd5kPSWc8Q4+2lqUz8n9nDMKvpjunp+fn3F3FmGvadh68aM/fkS/mYR+OxmdQuSTLl9E9YRzhP9feelZCyy2JcCCJkG71qYDUCTnlzIkIfiZ/5xY3464RqkZFplMxvtSb/aazOi8TzeUvxjO8DMsMrG/N2Dhn732LCgjYJXcenBio2ipq5lsoKZYoKPFIng/KiNis/WdgvNlHMt/W+GaYxHQF+HjSy4WJzR3BxEXC+8yLbCIysjL+EhrGutUd/7Oh/6zFlgAWywvLi7eWfklWF6gJmMuXwR5IaIvnmUIFt3uDFrHWDDdWSF9e9PVnYMnD05sDO2w6DVkZlPffPddZrcUuwUWT1cW6dfFvx8SEvWkj0UUg1ecXweLQW/Xz06xcGwq9O0Nz6ZGF9a1J1nt7agGuqtSDPtanwvb6e5YcE8mekL54vri4sP3ViaCQsIxvzPTHcTCA4EcXvGxkA+KBRfu24ODrpBkJEjtYWBCYsmfh/xcTLCYmfexyMzk0tSOXFh5787rKx+FIxQXi1eiWLhnnWHR1RwLLhgfvHO4JVlIqHQGBRAvfOYjzzEs5sNYMP8i+0fyBVeROwWxaEZURmLtsNBnGoilzwJx4zuHQoLjiqUO2QI0RkWXbzO5fOdtzLCgO3i5BCeur5W9l40+mwAWATj83MVLzbFg5F1lor+Bbri7Gjp9+/JwSJANPDpmi67eXokrCrffvq3QBb9yUztSbKWYig4Wjjg0ZQwXC+8io+cYBa5zoy9EU1lf9dG+HVxl0r+VTa1jrmBodNUMyaOmPrjUkjIOFq+99tIrDSg4+qKbYlFtfRFJOhsfBxqiNN7TN7W9X+OOqaR1YD4aeMOnE82w6Er0NqcE9S9i3XQi4O9+Yo/mv0kWnLzuZr5Wq2uQy0z3h7DoT+7T+AB0UCDCRLYDiCKRPNHSaettMm8GPt79+88I3blz59dfPyVpLYLFPj1rwKLNOvwXRMneruiuO/t8lWBvpuM5xP8PsegKi0wbTiN80filOE1oYODEPpf57WLx4imExdD/cixSfw5Y1P7+P/8vxqLBB/9X9+dfSkE++KeN4TEd0zEd0zEd0zEd0zEd0zEd0zEd0zEd0zEd0/9c+n+8kIAJmwx0LAAAAABJRU5ErkJggg==;sketch=0;" vertex="1" parent="1">
          <mxGeometry x="341" y="136" width="140" height="89" as="geometry" />
        </mxCell>
        <mxCell id="YFmYNpRaOBFysFHnidDB-22" style="edgeStyle=orthogonalEdgeStyle;rounded=0;orthogonalLoop=1;jettySize=auto;html=1;exitX=1;exitY=0.5;exitDx=0;exitDy=0;" edge="1" parent="1" source="YFmYNpRaOBFysFHnidDB-5" target="YFmYNpRaOBFysFHnidDB-21">
          <mxGeometry relative="1" as="geometry" />
        </mxCell>
        <mxCell id="YFmYNpRaOBFysFHnidDB-5" value="" style="shape=image;verticalLabelPosition=bottom;verticalAlign=top;imageAspect=0;image=https://encrypted-tbn0.gstatic.com/images?q=tbn:ANd9GcQXhZPbuZ-4oI7Qg0vS-ozB_tg88T7HPEOW_A&amp;usqp=CAU;sketch=0;" vertex="1" parent="1">
          <mxGeometry x="90" y="321" width="66.92" height="36" as="geometry" />
        </mxCell>
        <mxCell id="YFmYNpRaOBFysFHnidDB-23" style="edgeStyle=orthogonalEdgeStyle;rounded=0;orthogonalLoop=1;jettySize=auto;html=1;exitX=1;exitY=0.5;exitDx=0;exitDy=0;entryX=0;entryY=0.5;entryDx=0;entryDy=0;" edge="1" parent="1" source="YFmYNpRaOBFysFHnidDB-6" target="YFmYNpRaOBFysFHnidDB-21">
          <mxGeometry relative="1" as="geometry" />
        </mxCell>
        <mxCell id="YFmYNpRaOBFysFHnidDB-6" value="" style="shape=image;verticalLabelPosition=bottom;verticalAlign=top;imageAspect=0;image=https://encrypted-tbn0.gstatic.com/images?q=tbn:ANd9GcQXhZPbuZ-4oI7Qg0vS-ozB_tg88T7HPEOW_A&amp;usqp=CAU;sketch=0;" vertex="1" parent="1">
          <mxGeometry x="90" y="376" width="66.92" height="36" as="geometry" />
        </mxCell>
        <mxCell id="YFmYNpRaOBFysFHnidDB-24" style="edgeStyle=orthogonalEdgeStyle;rounded=0;orthogonalLoop=1;jettySize=auto;html=1;exitX=1;exitY=0.5;exitDx=0;exitDy=0;" edge="1" parent="1" source="YFmYNpRaOBFysFHnidDB-7" target="YFmYNpRaOBFysFHnidDB-21">
          <mxGeometry relative="1" as="geometry" />
        </mxCell>
        <mxCell id="YFmYNpRaOBFysFHnidDB-7" value="" style="shape=image;verticalLabelPosition=bottom;verticalAlign=top;imageAspect=0;image=https://encrypted-tbn0.gstatic.com/images?q=tbn:ANd9GcQXhZPbuZ-4oI7Qg0vS-ozB_tg88T7HPEOW_A&amp;usqp=CAU;sketch=0;" vertex="1" parent="1">
          <mxGeometry x="90" y="431" width="66.92" height="36" as="geometry" />
        </mxCell>
        <mxCell id="YFmYNpRaOBFysFHnidDB-13" style="edgeStyle=orthogonalEdgeStyle;rounded=0;orthogonalLoop=1;jettySize=auto;html=1;exitX=0.88;exitY=0.5;exitDx=0;exitDy=0;exitPerimeter=0;" edge="1" parent="1" source="YFmYNpRaOBFysFHnidDB-12" target="YFmYNpRaOBFysFHnidDB-1">
          <mxGeometry relative="1" as="geometry" />
        </mxCell>
        <mxCell id="YFmYNpRaOBFysFHnidDB-12" value="" style="fontColor=#0066CC;verticalAlign=top;verticalLabelPosition=bottom;labelPosition=center;align=center;html=1;outlineConnect=0;fillColor=#CCCCCC;strokeColor=#6881B3;gradientColor=none;gradientDirection=north;strokeWidth=2;shape=mxgraph.networks.security_camera;sketch=0;" vertex="1" parent="1">
          <mxGeometry x="244" y="85" width="42.63" height="27" as="geometry" />
        </mxCell>
        <mxCell id="YFmYNpRaOBFysFHnidDB-29" value="" style="edgeStyle=orthogonalEdgeStyle;rounded=0;orthogonalLoop=1;jettySize=auto;html=1;" edge="1" parent="1" source="YFmYNpRaOBFysFHnidDB-14">
          <mxGeometry relative="1" as="geometry">
            <mxPoint x="671.8" y="531" as="targetPoint" />
          </mxGeometry>
        </mxCell>
        <mxCell id="YFmYNpRaOBFysFHnidDB-14" value="" style="pointerEvents=1;shadow=0;dashed=0;html=1;strokeColor=none;fillColor=#505050;labelPosition=center;verticalLabelPosition=bottom;verticalAlign=top;outlineConnect=0;align=center;shape=mxgraph.office.devices.router;sketch=0;" vertex="1" parent="1">
          <mxGeometry x="644.25" y="325" width="55" height="56" as="geometry" />
        </mxCell>
        <mxCell id="YFmYNpRaOBFysFHnidDB-28" style="edgeStyle=orthogonalEdgeStyle;rounded=0;orthogonalLoop=1;jettySize=auto;html=1;exitX=0.5;exitY=1;exitDx=0;exitDy=0;entryX=1;entryY=0;entryDx=0;entryDy=0;" edge="1" parent="1" source="YFmYNpRaOBFysFHnidDB-16" target="YFmYNpRaOBFysFHnidDB-1">
          <mxGeometry relative="1" as="geometry" />
        </mxCell>
        <mxCell id="YFmYNpRaOBFysFHnidDB-16" value="" style="shape=image;verticalLabelPosition=bottom;verticalAlign=top;imageAspect=0;image=https://nice.com.br/novo2017/wp-content/uploads/2020/08/Cancela-Neo-laranja.png;sketch=0;" vertex="1" parent="1">
          <mxGeometry x="441" y="13" width="79.84" height="80" as="geometry" />
        </mxCell>
        <mxCell id="YFmYNpRaOBFysFHnidDB-18" value="" style="outlineConnect=0;dashed=0;verticalLabelPosition=bottom;verticalAlign=top;align=center;html=1;shape=mxgraph.aws3.mobile_client;gradientColor=none;sketch=0;fillColor=#000000;" vertex="1" parent="1">
          <mxGeometry x="161" y="700" width="40.5" height="63" as="geometry" />
        </mxCell>
        <mxCell id="YFmYNpRaOBFysFHnidDB-32" value="" style="edgeStyle=orthogonalEdgeStyle;rounded=0;orthogonalLoop=1;jettySize=auto;html=1;exitX=0.5;exitY=1;exitDx=0;exitDy=0;exitPerimeter=0;" edge="1" parent="1" source="YFmYNpRaOBFysFHnidDB-40" target="YFmYNpRaOBFysFHnidDB-31">
          <mxGeometry relative="1" as="geometry">
            <mxPoint x="672" y="617" as="sourcePoint" />
          </mxGeometry>
        </mxCell>
        <mxCell id="YFmYNpRaOBFysFHnidDB-25" style="edgeStyle=orthogonalEdgeStyle;rounded=0;orthogonalLoop=1;jettySize=auto;html=1;exitX=1;exitY=0.5;exitDx=0;exitDy=0;" edge="1" parent="1" source="YFmYNpRaOBFysFHnidDB-21" target="YFmYNpRaOBFysFHnidDB-1">
          <mxGeometry relative="1" as="geometry" />
        </mxCell>
        <mxCell id="YFmYNpRaOBFysFHnidDB-21" value="" style="shape=image;verticalLabelPosition=bottom;verticalAlign=top;imageAspect=0;image=https://www.freeiconspng.com/thumbs/arduino-icon/arduino-icon-7.png;sketch=0;fillColor=#E2E3E3;" vertex="1" parent="1">
          <mxGeometry x="221" y="345" width="114.67" height="86" as="geometry" />
        </mxCell>
        <mxCell id="YFmYNpRaOBFysFHnidDB-26" value="" style="shape=image;verticalLabelPosition=bottom;verticalAlign=top;imageAspect=0;image=https://i.pinimg.com/474x/23/53/7e/23537eed5fb2b832168835aeba2954ed.jpg;sketch=0;fillColor=#E2E3E3;" vertex="1" parent="1">
          <mxGeometry x="289" y="71" width="27" height="27" as="geometry" />
        </mxCell>
        <mxCell id="YFmYNpRaOBFysFHnidDB-27" value="" style="shape=image;verticalLabelPosition=bottom;verticalAlign=top;imageAspect=0;image=https://i.pinimg.com/474x/23/53/7e/23537eed5fb2b832168835aeba2954ed.jpg;sketch=0;fillColor=#E2E3E3;" vertex="1" parent="1">
          <mxGeometry x="346" y="360" width="27" height="27" as="geometry" />
        </mxCell>
        <mxCell id="YFmYNpRaOBFysFHnidDB-34" style="edgeStyle=orthogonalEdgeStyle;rounded=0;orthogonalLoop=1;jettySize=auto;html=1;exitX=0.03;exitY=0.5;exitDx=0;exitDy=0;exitPerimeter=0;entryX=1;entryY=0.5;entryDx=0;entryDy=0;entryPerimeter=0;" edge="1" parent="1" source="YFmYNpRaOBFysFHnidDB-30" target="YFmYNpRaOBFysFHnidDB-18">
          <mxGeometry relative="1" as="geometry" />
        </mxCell>
        <mxCell id="YFmYNpRaOBFysFHnidDB-30" value="" style="verticalLabelPosition=bottom;html=1;verticalAlign=top;align=center;strokeColor=none;fillColor=#00BEF2;shape=mxgraph.azure.cloud_service;sketch=0;" vertex="1" parent="1">
          <mxGeometry x="394" y="701" width="77.5" height="62" as="geometry" />
        </mxCell>
        <mxCell id="YFmYNpRaOBFysFHnidDB-33" value="" style="edgeStyle=orthogonalEdgeStyle;rounded=0;orthogonalLoop=1;jettySize=auto;html=1;" edge="1" parent="1" source="YFmYNpRaOBFysFHnidDB-31" target="YFmYNpRaOBFysFHnidDB-30">
          <mxGeometry relative="1" as="geometry" />
        </mxCell>
        <mxCell id="YFmYNpRaOBFysFHnidDB-31" value="" style="pointerEvents=1;shadow=0;dashed=0;html=1;strokeColor=none;fillColor=#505050;labelPosition=center;verticalLabelPosition=bottom;verticalAlign=top;outlineConnect=0;align=center;shape=mxgraph.office.devices.router;sketch=0;" vertex="1" parent="1">
          <mxGeometry x="644.25" y="703.5" width="55" height="56" as="geometry" />
        </mxCell>
        <mxCell id="YFmYNpRaOBFysFHnidDB-38" value="Internet" style="text;html=1;align=center;verticalAlign=middle;whiteSpace=wrap;rounded=0;sketch=0;fontColor=#FFFFFF;fontSize=16;" vertex="1" parent="1">
          <mxGeometry x="654" y="559" width="40" height="20" as="geometry" />
        </mxCell>
        <mxCell id="YFmYNpRaOBFysFHnidDB-41" value="Cloud Services" style="text;html=1;strokeColor=none;fillColor=none;align=center;verticalAlign=middle;whiteSpace=wrap;rounded=0;sketch=0;" vertex="1" parent="1">
          <mxGeometry x="401.75" y="766" width="62" height="31" as="geometry" />
        </mxCell>
      </root>
    </mxGraphModel>
  </diagram>
</mxfile>
